#N canvas 3 35 1360 708 10;
#X obj 32 412 outlet~;
#X obj 128 412 outlet~;
#X obj 207 412 outlet~;
#X obj 318 412 outlet~;
#X obj 32 85 inlet~;
#X obj 32 336 /~ 1.41421;
#X text 29 65 signal;
#X text 141 65 azimuth (theta);
#X text 297 65 elevation (phi);
#X text 32 446 W;
#X text 128 446 X;
#X text 207 446 Y;
#X text 318 446 Z;
#X obj 128 336 *~;
#X obj 206 336 *~;
#X obj 318 336 *~;
#X obj 128 374 *~;
#X obj 206 374 *~;
#X obj 143 85 inlet~;
#X obj 143 159 cos~;
#X obj 221 113 +~ 0.75;
#X obj 221 159 cos~;
#X obj 299 85 inlet~;
#X obj 299 113 *~ 0.5;
#X obj 299 159 cos~;
#X obj 333 136 +~ 0.75;
#X obj 333 159 cos~;
#X connect 4 0 5 0;
#X connect 4 0 13 0;
#X connect 4 0 15 0;
#X connect 4 0 14 0;
#X connect 5 0 0 0;
#X connect 13 0 16 0;
#X connect 14 0 17 0;
#X connect 15 0 3 0;
#X connect 16 0 1 0;
#X connect 17 0 2 0;
#X connect 18 0 19 0;
#X connect 18 0 20 0;
#X connect 19 0 13 1;
#X connect 20 0 21 0;
#X connect 21 0 14 1;
#X connect 22 0 23 0;
#X connect 23 0 24 0;
#X connect 23 0 25 0;
#X connect 24 0 16 1;
#X connect 24 0 17 1;
#X connect 25 0 26 0;
#X connect 26 0 15 1;
