#N canvas 686 35 677 708 12;
#X obj 67 403 tabwrite~ \$0-f-L;
#X obj 181 343 tgl 15 0 empty empty empty 17 7 0 10 -262144 -1 -1 1
1;
#X obj 181 363 metro 100;
#X obj 181 318 loadbang;
#X msg 989 572 pos \$1 \$2;
#X obj 989 597 s \$0-pos-r;
#X obj 989 547 pack f f, f 12;
#X obj 1038 517 t b f;
#X obj 989 422 *;
#X obj 999 367 cos;
#X obj 999 392 t b f;
#X obj 989 157 t b f;
#X msg 989 182 1;
#X obj 989 207 -, f 5;
#X obj 1038 422 *;
#X obj 1048 392 t b f;
#X obj 1048 367 sin;
#X obj 999 337 * 3.14159;
#X obj 999 312 - 0.5;
#X obj 999 287 * 2;
#X obj 67 248 SimpleAmbisonics/AmbiPanner~;
#X obj 67 288 SimpleAmbisonics/AmbiDecoderQuad~;
#X obj 500 317 cnv 15 111 119 empty empty empty 20 12 0 14 -262144
-66577 0;
#X obj 559 384 cnv 15 46 46 empty empty empty 20 12 0 14 -262144 -66577
0;
#X obj 506 384 cnv 15 46 46 empty empty empty 20 12 0 14 -262144 -66577
0;
#N canvas 0 50 450 250 (subpatch) 0;
#X array \$0-r-L 100 float 0;
#X coords 0 1 100 -1 48 48 1 0 0;
#X restore 505 383 graph;
#N canvas 0 50 450 250 (subpatch) 0;
#X array \$0-r-R 100 float 0;
#X coords 0 1 100 -1 48 48 1 0 0;
#X restore 558 383 graph;
#X obj 67 173 inlet~;
#X obj 67 508 outlet~;
#X obj 130 508 outlet~;
#X obj 193 508 outlet~;
#X obj 256 508 outlet~;
#X text 64 532 front L;
#X text 127 532 front R;
#X text 190 532 rear R;
#X text 253 532 rear L;
#X obj 143 428 tabwrite~ \$0-f-R;
#X obj 219 453 tabwrite~ \$0-r-R;
#X obj 295 478 tabwrite~ \$0-r-L;
#X obj 505 370 cnv 12 100 12 empty empty empty 20 12 0 14 -262144 -66577
0;
#X obj 559 331 cnv 15 46 46 empty empty empty 20 12 0 14 -262144 -66577
0;
#X obj 506 331 cnv 15 46 46 empty empty empty 20 12 0 14 -262144 -66577
0;
#N canvas 0 50 450 250 (subpatch) 0;
#X array \$0-f-L 100 float 0;
#X coords 0 1 100 -1 48 48 1 0 0;
#X restore 505 330 graph;
#N canvas 0 50 450 250 (subpatch) 0;
#X array \$0-f-R 100 float 0;
#X coords 0 1 100 -1 48 48 1 0 0;
#X restore 558 330 graph;
#X obj 552 332 cnv 7 7 7 empty \$0-pos-r . -4 -3 2 64 -262144 -1 0
;
#X obj 1038 487 + 377;
#X obj 989 487 + 552;
#X obj 989 447 * 45;
#X obj 1038 447 * 45;
#X obj 181 173 inlet~;
#X obj 260 173 inlet~;
#X obj 260 198 *~ 0.25;
#X obj 260 223 +~ 0.25;
#X obj 999 237 env~;
#X obj 999 262 dbtorms;
#X obj 989 107 env~;
#X obj 989 132 dbtorms;
#X obj 163 123 loadbang;
#X msg 163 148 1;
#X obj 163 219 -~;
#X connect 1 0 2 0;
#X connect 2 0 0 0;
#X connect 2 0 36 0;
#X connect 2 0 37 0;
#X connect 2 0 38 0;
#X connect 3 0 1 0;
#X connect 4 0 5 0;
#X connect 6 0 4 0;
#X connect 7 0 6 0;
#X connect 7 1 6 1;
#X connect 8 0 47 0;
#X connect 9 0 10 0;
#X connect 10 0 8 0;
#X connect 10 1 8 1;
#X connect 11 0 12 0;
#X connect 11 1 13 1;
#X connect 12 0 13 0;
#X connect 13 0 8 0;
#X connect 13 0 14 0;
#X connect 14 0 48 0;
#X connect 15 0 14 0;
#X connect 15 1 14 1;
#X connect 16 0 15 0;
#X connect 17 0 9 0;
#X connect 17 0 16 0;
#X connect 18 0 17 0;
#X connect 19 0 18 0;
#X connect 20 0 21 0;
#X connect 20 1 21 1;
#X connect 20 2 21 2;
#X connect 21 0 0 0;
#X connect 21 0 28 0;
#X connect 21 1 29 0;
#X connect 21 1 36 0;
#X connect 21 2 30 0;
#X connect 21 2 37 0;
#X connect 21 3 31 0;
#X connect 21 3 38 0;
#X connect 27 0 20 0;
#X connect 45 0 7 0;
#X connect 46 0 6 0;
#X connect 47 0 46 0;
#X connect 48 0 45 0;
#X connect 49 0 53 0;
#X connect 49 0 59 1;
#X connect 50 0 51 0;
#X connect 50 0 55 0;
#X connect 51 0 52 0;
#X connect 52 0 20 2;
#X connect 53 0 54 0;
#X connect 54 0 19 0;
#X connect 55 0 56 0;
#X connect 56 0 11 0;
#X connect 57 0 58 0;
#X connect 58 0 59 0;
#X connect 59 0 20 1;
#X coords 0 -1 1 1 113 132 2 499 308;
